<svg width="100" height="20" viewBox="0 0 100 20" fill="none" xmlns="http://www.w3.org/2000/svg">
<path d="M9.2284 2.19425C9.49506 1.49091 10.5042 1.49091 10.7717 2.19425L12.4967 6.97258C12.5569 7.12824 12.6629 7.26198 12.8007 7.35616C12.9384 7.45034 13.1015 7.50052 13.2684 7.50008H17.5076C18.2909 7.50008 18.6326 8.47508 18.0167 8.95258L15.0001 11.6667C14.8649 11.7706 14.7662 11.9146 14.718 12.0781C14.6698 12.2416 14.6746 12.4162 14.7317 12.5767L15.8334 17.2459C16.1017 17.9959 15.2334 18.6401 14.5767 18.1784L10.4792 15.5784C10.3389 15.4798 10.1716 15.4269 10.0001 15.4269C9.82855 15.4269 9.66122 15.4798 9.5209 15.5784L5.4234 18.1784C4.76756 18.6401 3.8984 17.9951 4.16673 17.2459L5.2684 12.5767C5.32555 12.4162 5.33036 12.2416 5.28215 12.0781C5.23395 11.9146 5.13519 11.7706 5.00006 11.6667L1.9834 8.95258C1.36673 8.47508 1.71006 7.50008 2.49173 7.50008H6.7309C6.89781 7.50064 7.06095 7.4505 7.19875 7.35631C7.33654 7.26212 7.44248 7.1283 7.50256 6.97258L9.22756 2.19425H9.2284Z" fill="#F4A42B"/>
<path d="M29.2284 2.19425C29.4951 1.49091 30.5042 1.49091 30.7717 2.19425L32.4967 6.97258C32.5569 7.12824 32.6629 7.26198 32.8007 7.35616C32.9384 7.45034 33.1015 7.50052 33.2684 7.50008H37.5076C38.2909 7.50008 38.6326 8.47508 38.0167 8.95258L35.0001 11.6667C34.8649 11.7706 34.7662 11.9146 34.718 12.0781C34.6698 12.2416 34.6746 12.4162 34.7317 12.5767L35.8334 17.2459C36.1017 17.9959 35.2334 18.6401 34.5767 18.1784L30.4792 15.5784C30.3389 15.4798 30.1716 15.4269 30.0001 15.4269C29.8286 15.4269 29.6612 15.4798 29.5209 15.5784L25.4234 18.1784C24.7676 18.6401 23.8984 17.9951 24.1667 17.2459L25.2684 12.5767C25.3255 12.4162 25.3304 12.2416 25.2822 12.0781C25.2339 11.9146 25.1352 11.7706 25.0001 11.6667L21.9834 8.95258C21.3667 8.47508 21.7101 7.50008 22.4917 7.50008H26.7309C26.8978 7.50064 27.061 7.4505 27.1987 7.35631C27.3365 7.26212 27.4425 7.1283 27.5026 6.97258L29.2276 2.19425H29.2284Z" fill="#F4A42B"/>
<path d="M49.2284 2.19425C49.4951 1.49091 50.5042 1.49091 50.7717 2.19425L52.4967 6.97258C52.5569 7.12824 52.6629 7.26198 52.8007 7.35616C52.9384 7.45034 53.1015 7.50052 53.2684 7.50008H57.5076C58.2909 7.50008 58.6326 8.47508 58.0167 8.95258L55.0001 11.6667C54.8649 11.7706 54.7662 11.9146 54.718 12.0781C54.6698 12.2416 54.6746 12.4162 54.7317 12.5767L55.8334 17.2459C56.1017 17.9959 55.2334 18.6401 54.5767 18.1784L50.4792 15.5784C50.3389 15.4798 50.1716 15.4269 50.0001 15.4269C49.8286 15.4269 49.6612 15.4798 49.5209 15.5784L45.4234 18.1784C44.7676 18.6401 43.8984 17.9951 44.1667 17.2459L45.2684 12.5767C45.3255 12.4162 45.3304 12.2416 45.2822 12.0781C45.2339 11.9146 45.1352 11.7706 45.0001 11.6667L41.9834 8.95258C41.3667 8.47508 41.7101 7.50008 42.4917 7.50008H46.7309C46.8978 7.50064 47.061 7.4505 47.1987 7.35631C47.3365 7.26212 47.4425 7.1283 47.5026 6.97258L49.2276 2.19425H49.2284Z" fill="#F4A42B"/>
<path d="M69.2284 2.19425C69.4951 1.49091 70.5042 1.49091 70.7717 2.19425L72.4967 6.97258C72.5569 7.12824 72.6629 7.26198 72.8007 7.35616C72.9384 7.45034 73.1015 7.50052 73.2684 7.50008H77.5076C78.2909 7.50008 78.6326 8.47508 78.0167 8.95258L75.0001 11.6667C74.8649 11.7706 74.7662 11.9146 74.718 12.0781C74.6698 12.2416 74.6746 12.4162 74.7317 12.5767L75.8334 17.2459C76.1017 17.9959 75.2334 18.6401 74.5767 18.1784L70.4792 15.5784C70.3389 15.4798 70.1716 15.4269 70.0001 15.4269C69.8286 15.4269 69.6612 15.4798 69.5209 15.5784L65.4234 18.1784C64.7676 18.6401 63.8984 17.9951 64.1667 17.2459L65.2684 12.5767C65.3255 12.4162 65.3304 12.2416 65.2822 12.0781C65.2339 11.9146 65.1352 11.7706 65.0001 11.6667L61.9834 8.95258C61.3667 8.47508 61.7101 7.50008 62.4917 7.50008H66.7309C66.8978 7.50064 67.061 7.4505 67.1987 7.35631C67.3365 7.26212 67.4425 7.1283 67.5026 6.97258L69.2276 2.19425H69.2284Z" fill="#F4A42B"/>
<path d="M89.2284 2.19425C89.4951 1.49091 90.5042 1.49091 90.7717 2.19425L92.4967 6.97258C92.5569 7.12824 92.6629 7.26198 92.8007 7.35616C92.9384 7.45034 93.1015 7.50052 93.2684 7.50008H97.5076C98.2909 7.50008 98.6326 8.47508 98.0167 8.95258L95.0001 11.6667C94.8649 11.7706 94.7662 11.9146 94.718 12.0781C94.6698 12.2416 94.6746 12.4162 94.7317 12.5767L95.8334 17.2459C96.1017 17.9959 95.2334 18.6401 94.5767 18.1784L90.4792 15.5784C90.3389 15.4798 90.1716 15.4269 90.0001 15.4269C89.8286 15.4269 89.6612 15.4798 89.5209 15.5784L85.4234 18.1784C84.7676 18.6401 83.8984 17.9951 84.1667 17.2459L85.2684 12.5767C85.3255 12.4162 85.3304 12.2416 85.2822 12.0781C85.2339 11.9146 85.1352 11.7706 85.0001 11.6667L81.9834 8.95258C81.3667 8.47508 81.7101 7.50008 82.4917 7.50008H86.7309C86.8978 7.50064 87.061 7.4505 87.1987 7.35631C87.3365 7.26212 87.4425 7.1283 87.5026 6.97258L89.2276 2.19425H89.2284Z" fill="#F4A42B"/>
</svg>
